<svg xmlns="http://www.w3.org/2000/svg" width="1200" height="630" viewBox="0 0 1200 630" role="img" aria-label="Scouting Grade 2026 NFL Draft">
  <defs>
    <linearGradient id="bg" x1="0" y1="0" x2="1" y2="1">
      <stop offset="0%" stop-color="#0f2942" />
      <stop offset="100%" stop-color="#113f66" />
    </linearGradient>
    <radialGradient id="glow" cx="20%" cy="20%" r="70%">
      <stop offset="0%" stop-color="#2fd07a" stop-opacity="0.34" />
      <stop offset="100%" stop-color="#2fd07a" stop-opacity="0" />
    </radialGradient>
  </defs>
  <rect width="1200" height="630" fill="url(#bg)" />
  <rect width="1200" height="630" fill="url(#glow)" />
  <g fill="#eaf0f6">
    <text x="80" y="200" font-family="Segoe UI, Arial, sans-serif" font-size="44" font-weight="700">Scouting Grade</text>
    <text x="80" y="282" font-family="Segoe UI, Arial, sans-serif" font-size="70" font-weight="800">2026 NFL Draft Hub</text>
    <text x="80" y="350" font-family="Segoe UI, Arial, sans-serif" font-size="32" font-weight="500" fill="#c8d5e2">Big Board · Mock Drafts · Scouting Cards · Player Compare</text>
  </g>
  <g transform="translate(846 112)">
    <rect width="272" height="272" rx="56" fill="#123A63" />
    <rect x="30" y="30" width="212" height="212" rx="48" stroke="#EEF3F7" stroke-opacity="0.18" stroke-width="6"/>
    <path d="M184 76H112C90 76 74 88 74 107C74 127 89 137 118 143L146 149C161 153 169 158 169 167C169 177 160 184 145 184H73" stroke="#EEF3F7" stroke-width="16" stroke-linecap="round" stroke-linejoin="round"/>
    <path d="M193 121V191C193 207 179 220 161 220H128C107 220 93 207 93 188V170" stroke="#17A34A" stroke-width="16" stroke-linecap="round" stroke-linejoin="round"/>
    <path d="M137 120H193" stroke="#17A34A" stroke-width="16" stroke-linecap="round"/>
    <path d="M116 52V83" stroke="#0EA5E9" stroke-width="7" stroke-linecap="round" stroke-opacity="0.9"/>
    <path d="M148 52V83" stroke="#0EA5E9" stroke-width="7" stroke-linecap="round" stroke-opacity="0.9"/>
    <path d="M180 52V83" stroke="#0EA5E9" stroke-width="7" stroke-linecap="round" stroke-opacity="0.9"/>
  </g>
</svg>
