<svg width="512" height="512" viewBox="0 0 512 512" fill="none" xmlns="http://www.w3.org/2000/svg">
  <rect width="512" height="512" rx="104" fill="#123A63"/>
  <path d="M158 345C158 322 175 307 205 307H281C313 307 332 293 332 270C332 250 315 236 285 230L223 218C179 210 154 190 154 155C154 118 184 92 230 92H358" stroke="#EEF3F7" stroke-width="28" stroke-linecap="round" stroke-linejoin="round"/>
  <path d="M360 149V343C360 376 334 402 299 402H254C214 402 188 376 188 340V300" stroke="#17A34A" stroke-width="28" stroke-linecap="round" stroke-linejoin="round"/>
  <path d="M258 149H360" stroke="#17A34A" stroke-width="28" stroke-linecap="round"/>
  <path d="M112 370C151 362 181 340 202 305" stroke="#0EA5E9" stroke-width="12" stroke-linecap="round" stroke-dasharray="12 16"/>
  <path d="M202 305L182 306" stroke="#0EA5E9" stroke-width="12" stroke-linecap="round"/>
  <path d="M202 305L193 286" stroke="#0EA5E9" stroke-width="12" stroke-linecap="round"/>
  <rect x="318" y="78" width="78" height="78" rx="18" fill="#EEF3F7" fill-opacity="0.08" stroke="#EEF3F7" stroke-opacity="0.18" stroke-width="8"/>
  <path d="M338 117L353 132L381 104" stroke="#17A34A" stroke-width="12" stroke-linecap="round" stroke-linejoin="round"/>
</svg>
